<?xml version="1.0" standalone="no"?>
<!DOCTYPE svg PUBLIC "-//W3C//DTD SVG 1.1//EN" "http://www.w3.org/Graphics/SVG/1.1/DTD/svg11.dtd" >
<svg xmlns="http://www.w3.org/2000/svg">
<metadata>Generated by IcoMoon</metadata>
<defs>
<font id="icomoon" horiz-adv-x="512">
<font-face units-per-em="512" ascent="480" descent="-32" />
<missing-glyph horiz-adv-x="512" />
<glyph unicode="&#x20;" d="" horiz-adv-x="256" />
<glyph unicode="&#xe600;" d="M512.071 224c0-141.424-114.647-256.071-256.071-256.071s-256.071 114.647-256.071 256.071c0 141.424 114.647 256.071 256.071 256.071s256.071-114.647 256.071-256.071zM184.889 273.906h30.471v29.618c0 13.056 0.327 33.202 9.821 45.674 9.991 13.213 23.708 22.187 47.303 22.187 38.442 0 54.635-5.483 54.635-5.483l-7.616-45.148c0 0-12.7 3.669-24.548 3.669-11.854 0-22.464-4.245-22.464-16.092v-34.425h48.598l-3.392-44.096h-45.205v-153.18h-57.117v153.18h-30.486v44.096z" />
<glyph unicode="&#xe601;" d="M512.071 224c0-141.424-114.647-256.071-256.071-256.071s-256.071 114.647-256.071 256.071c0 141.424 114.647 256.071 256.071 256.071s256.071-114.647 256.071-256.071zM325.853 337.863h-139.705c-24.27 0-44.011-19.74-44.011-44.003v-139.712c0-24.27 19.748-44.004 44.011-44.004h139.705c24.27 0 44.010 19.74 44.010 44.004v139.712c0 24.263-19.74 44.004-44.010 44.004zM338.482 311.616l5.034 0.022v-38.599l-38.486-0.121-0.128 38.599 33.579 0.099zM223.51 247.374c7.282 10.098 19.114 16.711 32.49 16.711s25.209-6.613 32.49-16.711c4.757-6.592 7.594-14.649 7.594-23.374 0-22.101-17.991-40.078-40.085-40.078s-40.078 17.977-40.078 40.078c0 8.726 2.838 16.782 7.588 23.374zM347.676 154.14c0-12.039-9.785-21.817-21.824-21.817h-139.705c-12.046 0-21.824 9.778-21.824 21.817v93.226h33.998c-2.944-7.225-4.594-15.111-4.594-23.374 0-34.332 27.925-62.272 62.265-62.272s62.265 27.947 62.265 62.272c0 8.263-1.657 16.149-4.594 23.374h33.998l0.014-93.227z" />
<glyph unicode="&#xe602;" d="M512.071 224c0-141.424-114.647-256.071-256.071-256.071s-256.071 114.647-256.071 256.071c0 141.424 114.647 256.071 256.071 256.071s256.071-114.647 256.071-256.071zM195.392 124.558h-42.219v135.111h42.219v-135.111zM173.198 276.565h-0.306c-15.282 0-25.188 10.325-25.188 23.41 0 13.347 10.204 23.459 25.785 23.459 15.573 0 25.152-10.090 25.458-23.424 0-13.084-9.885-23.446-25.75-23.446zM364.295 124.558h-47.872v69.916c0 18.297-7.481 30.784-23.95 30.784-12.601 0-19.591-8.426-22.855-16.555-1.216-2.909-1.031-6.969-1.031-11.043v-73.102h-47.431c0 0 0.619 123.847 0 135.104h47.424v-21.206c2.802 9.273 17.955 22.506 42.147 22.506 29.995 0 53.568-19.442 53.568-61.276v-75.129z" />
<glyph unicode="&#xe603;" d="M512.1 224.029c0-141.424-114.647-256.071-256.071-256.071s-256.071 114.647-256.071 256.071c0 141.424 114.647 256.071 256.071 256.071s256.071-114.647 256.071-256.071zM256.036 393.536c-93.611 0-169.522-75.89-169.522-169.507 0-69.404 41.75-129.038 101.49-155.25-0.49 11.826-0.093 26.048 2.937 38.919 3.264 13.753 21.803 92.366 21.803 92.366s-5.411 10.823-5.411 26.816c0 25.131 14.564 43.882 32.69 43.882 15.417 0 22.87-11.584 22.87-25.45 0-15.502-9.885-38.685-14.969-60.153-4.252-17.991 9.017-32.647 26.745-32.647 32.121 0 53.746 41.238 53.746 90.119 0 37.141-25.024 64.946-70.528 64.946-51.421 0-83.449-38.336-83.449-81.166 0-14.777 4.352-25.188 11.165-33.252 3.143-3.719 3.577-5.198 2.446-9.458-0.804-3.094-2.681-10.624-3.456-13.596-1.131-4.295-4.608-5.831-8.476-4.245-23.694 9.678-34.716 35.606-34.716 64.754 0 48.149 40.597 105.906 121.138 105.906 64.726 0 107.314-46.848 107.314-97.102 0-66.503-36.971-116.174-91.47-116.174-18.283 0-35.506 9.885-41.394 21.12 0 0-9.849-39.047-11.933-46.592-3.577-13.063-10.624-26.119-17.060-36.302 15.246-4.509 31.36-6.962 48.050-6.962 93.611 0 169.5 75.897 169.5 169.507-0.007 93.632-75.897 169.522-169.507 169.522z" />
<glyph unicode="&#xe604;" d="M135.938 36.553c0-37.538-30.431-67.969-67.969-67.969s-67.969 30.431-67.969 67.969c0 37.538 30.431 67.969 67.969 67.969s67.969-30.431 67.969-67.969zM0.081 207.913c63.7 0 123.552-24.902 168.543-70.112 45.064-45.275 69.876-105.533 69.876-169.696h98.13c0 186.334-150.978 337.938-336.55 337.938v-98.13zM0.228 381.87c226.975 0 411.629-185.661 411.629-413.87h98.13c0 282.322-228.68 512-509.76 512v-98.13z" horiz-adv-x="510" />
<glyph unicode="&#xe605;" d="M512.071 224c0-141.424-114.647-256.071-256.071-256.071s-256.071 114.647-256.071 256.071c0 141.424 114.647 256.071 256.071 256.071s256.071-114.647 256.071-256.071zM403.378 305.934c-10.318-4.579-21.433-7.673-33.074-9.066 11.897 7.132 21.027 18.404 25.315 31.851-11.136-6.599-23.445-11.385-36.579-13.959-10.482 11.186-25.465 18.183-42.034 18.183-31.786 0-57.572-25.792-57.572-57.586 0-4.523 0.49-8.903 1.479-13.113-47.858 2.397-90.275 25.301-118.706 60.167-4.957-8.534-7.794-18.425-7.794-28.978 0-19.961 10.169-37.59 25.621-47.929-9.436 0.292-18.326 2.901-26.098 7.19v-0.711c0-27.918 19.847-51.186 46.215-56.462-4.835-1.351-9.92-2.026-15.182-2.026-3.712 0-7.332 0.349-10.823 1.024 7.317-22.87 28.587-39.531 53.788-39.978-19.705-15.459-44.544-24.661-71.516-24.661-4.65 0-9.245 0.256-13.739 0.796 25.486-16.32 55.758-25.863 88.277-25.863 105.949 0 163.854 87.737 163.854 163.854 0 2.503-0.050 4.999-0.149 7.452 11.236 8.121 21.014 18.269 28.714 29.817z" />
<glyph unicode="&#xe606;" d="M512.071 224c0-141.424-114.647-256.071-256.071-256.071s-256.071 114.647-256.071 256.071c0 141.424 114.647 256.071 256.071 256.071s256.071-114.647 256.071-256.071zM364.288 224.704c-6.365-1.472-12.522-2.112-18.062-2.112-31.175 0-55.168 21.767-55.168 59.62 0 18.553 7.175 28.202 17.315 28.202 9.65 0 16.078-8.654 16.078-26.226 0-9.991-2.674-20.935-4.651-27.406 0 0 9.607-16.761 35.875-11.613 5.582 12.38 8.611 28.416 8.611 42.482 0 37.853-19.3 59.869-54.678 59.869-36.366 0-57.642-27.954-57.642-64.818 0-36.516 17.067-67.861 45.219-82.147-11.84-23.68-26.894-44.537-42.602-60.252-28.501 34.454-54.265 80.413-64.832 170.105h-42.048c19.428-149.376 77.319-196.942 92.622-206.073 8.661-5.198 16.114-4.95 24.029-0.49 12.43 7.069 49.742 44.38 70.428 88.078 8.683 0.022 19.115 1.017 29.504 3.37v29.411z" />
<glyph unicode="&#xe607;" d="M372.141-32h-44.544v118.488l9.676 6.642c51.028 34.969 81.502 92.709 81.502 154.473 0 103.173-83.95 187.108-187.123 187.108s-187.108-83.935-187.108-187.108c0-66.115 35.483-128.007 92.595-161.516l11.007-6.455v-111.632h-44.544v86.541c-64.211 42.712-103.603 115.54-103.603 193.063 0 127.75 103.917 231.667 231.667 231.667s231.667-103.931 231.667-231.667c0-72.484-33.88-140.474-91.178-184.232v-95.372zM147.674 181.832c-40.579 0-73.587 33.022-73.587 73.601s33.007 73.601 73.587 73.601 73.601-33.022 73.601-73.601-33.007-73.601-73.601-73.601zM147.674 284.49c-16.017 0-29.043-13.026-29.043-29.043s13.026-29.042 29.043-29.042c16.031 0 29.057 13.025 29.057 29.042s-13.025 29.043-29.057 29.043zM312.539 181.832c-40.579 0-73.587 33.022-73.587 73.601s33.007 73.601 73.587 73.601 73.587-33.022 73.587-73.601-33.007-73.601-73.587-73.601zM312.539 284.49c-16.017 0-29.043-13.026-29.043-29.043s13.026-29.042 29.043-29.042 29.043 13.025 29.043 29.042-13.026 29.043-29.043 29.043zM180.18 77.271h44.544v-109.271h-44.544v109.27zM254.239 77.271h44.544v-109.271h-44.544v109.27z" horiz-adv-x="464" />
<glyph unicode="&#xe608;" d="M352.087 190.521c-3.077 167.671-136.524 274.937-142.278 279.474l-12.224 9.647-11.881-10.063c-5.782-4.895-141.333-121.494-141.892-283.897l-43.814-68.176v-149.421h128.723l1.073 54.578h49.153v-51.114h38.118v51.114h52.145l1.074-54.578h128.723v149.421l-46.92 73.014zM198.373 429.258c13.77-12.968 37.144-37.215 59.301-70.466h-117.257c21.843 32.664 44.559 57.212 57.956 70.466zM38.117 6.217v100.11l12.667 19.695c9.29-38.532 25.607-66.93 34.969-83.234 2.19-3.836 4.037-7.014 5.281-9.519l0.802-1.632-0.501-25.421h-53.218zM178.95 208.083v-147.287h-59.573c-0.186 0.329-0.372 0.644-0.558 0.988-12.897 22.444-36.901 64.226-36.901 122.911 0 50.699 15.588 97.033 35.87 135.98h162.16c19.423-38.203 34.181-84.136 34.181-135.98 0-63.51-22.373-99.809-35.741-121.495-0.501-0.83-0.988-1.632-1.474-2.404h-59.817v147.288h-38.146zM360.905 6.217h-53.218l-0.615 30.788c1.102 1.861 2.333 3.879 3.764 6.198 10.363 16.818 27.053 44.072 35.741 85.409l14.342-22.3v-100.096z" horiz-adv-x="399" />
<glyph unicode="&#xe609;" d="M399.714-32l-10.134 6.116c-153.938 93.018-151.54 171.286-143.385 200.607 9.633 34.557 40.553 56.902 78.767 56.902 26.283 0 52.665-10.973 74.75-30.659 22.086 19.687 48.468 30.66 74.75 30.66 38.235 0 69.154-22.325 78.768-56.902 8.174-29.341 10.553-107.608-143.385-200.607l-10.134-6.116zM324.964 192.411c-20.426 0-36.136-10.793-40.973-28.202-8.974-32.219 17.128-88.122 115.743-150.26 98.615 62.139 124.717 118.041 115.743 150.26-4.837 17.389-20.546 28.202-40.993 28.202-20.906 0-42.651-11.732-59.68-32.159l-15.070-18.088-15.070 18.088c-17.029 20.426-38.794 32.159-59.7 32.159zM223.272 82.863h-223.272v397.137h437.37v-215.797l-111.346 0.519-37.475 40.293-84.284-117.861-81.406 99.274h-78.948v-159.654h179.361v-43.911zM43.911 330.32h99.734l58.262-71.013 82.226 114.963 61.12-65.736 48.228-0.22v127.775h-349.568v-105.77z" horiz-adv-x="557" />
<glyph unicode="&#xe60a;" d="M96 416l320-192-320-192z" />
<glyph unicode="&#xe60b;" d="M0 480v-512h563.896v512h-563.896zM507.302 24.594h-450.708v398.812h450.69v-398.812zM97.971 258.929h56.594v-69.877h-56.594v69.877zM97.971 152.079h56.594v-69.877h-56.594v69.877zM97.971 365.798h56.594v-69.858h-56.594v69.858zM409.331 258.929h56.594v-69.877h-56.594v69.877zM409.331 152.079h56.594v-69.877h-56.594v69.877zM409.331 365.798h56.594v-69.858h-56.594v69.858z" horiz-adv-x="564" />
<glyph unicode="&#xe60c;" d="M58.011 141.895h48.291v38.639h38.639v48.291h-144.907v-48.291h57.977zM193.249 354.413v-173.878h202.867v173.878h-202.867zM347.808 228.826h-106.267v77.279h106.267v-77.279zM58.011 267.466h48.291v38.656h38.639v48.291h-144.907v-48.291h57.977zM58.011 480v-86.947h48.291v38.639h367.093v-415.384h-367.093v38.639h38.639v48.308h-144.907v-48.308h57.977v-86.947h463.692v512z" horiz-adv-x="522" />
<glyph unicode="&#xe60d;" d="M0 480h426.662v-355.87l-155.261-156.13h-271.401v512zM379.248 143.719v288.868h-331.836v-417.173h204.156l127.68 128.307zM312.887 375.7v-47.413h-199.113v47.413h199.113zM312.887 290.375v-47.413h-199.113v47.413h199.113zM199.113 53.338v142.226h142.226v-47.413h-94.812v-94.812h-47.413z" horiz-adv-x="427" />
<glyph unicode="&#xe60e;" d="M565.716 406.857c25.639 0 47.481-9.11 65.525-27.22 18.023-18.176 27.044-40.215 27.044-66.118v-250.622c0-25.903-9.088-48.206-27.22-66.887-18.176-18.637-39.952-27.988-65.35-27.988h-94.853c18.791 10.427 37.077 30.711 54.857 60.959h39.996c8.627 0 16.068 3.358 22.281 10.098 6.235 6.695 9.351 14.685 9.351 23.817v250.6c0 9.154-3.052 16.837-9.154 23.049s-13.588 9.351-22.479 9.351h-90.661l-42.279 73.143h-204.963l-43.047-73.143h-92.197c-8.912 0-16.376-3.117-22.478-9.351-6.102-6.213-9.154-13.917-9.154-23.049v-250.622c0-9.154 3.117-17.123 9.352-23.817 6.213-6.739 13.632-10.098 22.281-10.098h39.996c17.759-30.228 36.044-50.532 54.857-60.959h-94.853c-25.398 0-47.174 9.351-65.35 27.988-18.132 18.681-27.22 40.983-27.22 66.887v250.622c0 25.903 9 47.964 27.044 66.141 18.023 18.132 39.864 27.22 65.525 27.22h57.535l43.047 73.143h274.285l42.674-73.143h55.604zM237.517-7.414c28.076-16.398 58.611-24.586 91.626-24.586 32.993 0 63.55 8.188 91.626 24.586 28.054 16.354 50.291 38.569 66.645 66.645 16.398 28.076 24.586 58.633 24.586 91.626s-8.188 63.55-24.586 91.626c-16.354 28.032-38.591 50.291-66.645 66.645-28.076 16.398-58.633 24.586-91.626 24.586-33.015 0-63.55-8.188-91.626-24.586-28.054-16.354-50.291-38.613-66.645-66.645-16.398-28.076-24.586-58.633-24.586-91.626s8.188-63.55 24.586-91.626c16.354-28.076 38.591-50.291 66.645-66.645zM241.337 238.663c24.257 24.212 53.54 36.374 87.829 36.374s63.55-12.161 87.829-36.374c24.235-24.257 36.374-53.54 36.374-87.829s-12.139-63.55-36.374-87.829c-24.257-24.257-53.54-36.374-87.829-36.374s-63.55 12.118-87.829 36.374c-24.234 24.257-36.374 53.54-36.374 87.829s12.118 63.572 36.374 87.829z" horiz-adv-x="658" />
<glyph unicode="&#xe60f;" d="M63.904 448.057h-63.904v-480.057h480.039v63.904h-416.136zM175.73 480v-63.904h227.155l-267.734-267.734 45.212-45.194 267.734 267.734v-255.111h63.904v364.209z" />
<glyph unicode="&#xe610;" d="M0 480v-512h697.309v512h-697.309zM585.116 416.844l-240.151-188.99-234.274 188.99h474.425zM63.156 31.156v342.896l281.315-226.95 289.683 227.938v-343.885h-570.999z" horiz-adv-x="698" />
<glyph unicode="&#xe611;" d="M512 4.298l-36.298-36.298-135.552 135.552c-38.546-29.762-81.705-44.653-129.445-44.653-28.064 0-54.928 5.3-80.625 15.885-25.697 10.618-48.495 25.868-68.411 45.784s-35.183 42.663-45.767 68.274c-10.618 25.577-15.902 52.389-15.902 80.453 0 28.047 5.335 54.928 16.056 80.625 10.704 25.697 25.903 48.495 45.613 68.411 19.916 19.916 42.714 35.183 68.411 45.767 25.714 10.619 52.577 15.902 80.625 15.902s54.876-5.283 80.453-15.902c25.594-10.584 48.358-25.851 68.274-45.767s35.166-42.714 45.784-68.411c10.584-25.697 15.885-52.577 15.885-80.625 0-48.186-14.89-91.346-44.653-129.445l135.552-135.552zM97.968 156.867c31.032-31.049 68.617-46.574 112.737-46.574 21.202 0 41.478 4.031 60.88 12.042 19.367 8.046 36.555 19.538 51.548 34.531 31.032 31.032 46.574 68.513 46.574 112.428 0 44.103-15.541 81.688-46.574 112.737-14.993 14.976-32.164 26.503-51.548 34.514-19.384 8.046-39.678 12.060-60.88 12.060-44.12 0-81.705-15.541-112.737-46.574-31.049-31.478-46.574-69.063-46.574-112.737 0-43.486 15.524-80.951 46.574-112.428z" />
<glyph unicode="&#xe612;" d="M603.11 187.361l-39.539 90.623h-25.772v-147.925h25.772v88.4l28.211-63.075h22.655l28.197 63.075v-88.4h25.772v147.925h-25.772zM782.593 277.983h-52.194c-13.55 0-24.214-10.881-24.214-24.43v-99.064c0-13.55 10.664-24.43 24.214-24.43h52.194c13.55 0 24.431 10.88 24.431 24.43v99.064c0.014 13.55-10.88 24.431-24.431 24.431zM780.385 160.261c0-3.334-2.669-5.772-6.003-5.772h-35.542c-3.333 0-6.003 2.439-6.003 5.772v87.519c0 3.333 2.669 5.773 6.003 5.773h35.542c3.333 0 6.003-2.439 6.003-5.773v-87.519zM916.995 277.983h-72.195v-147.925h72.195c13.55 0 24.431 10.88 24.431 24.43v99.064c0 13.55-10.88 24.43-24.431 24.43zM914.774 160.261c0-3.334-2.669-5.772-6.003-5.772h-37.317v99.064h37.317c3.333 0 6.003-2.439 6.003-5.773v-87.519zM979.203 130.058h89.728v24.43h-63.075v37.981h57.534v24.43h-57.534v36.653h63.075v24.43h-89.728zM1205.34 211.575v41.978c0 13.55-10.88 24.43-24.43 24.43h-77.533v-147.925h26.653v57.086h27.98l27.98-57.086h29.322l-28.428 57.75c10.678 2.67 18.455 12.222 18.455 23.767zM1178.673 217.347c0-3.334-2.669-5.772-6.003-5.772h-42.642v41.978h42.642c3.333 0 6.003-2.439 6.003-5.773v-30.434zM1327.072 181.805l-55.975 96.178h-25.772v-147.925h25.772v95.731l55.975-95.731h25.758v147.925h-25.758zM1515.675 181.805l-55.975 96.178h-25.772v-147.925h25.772v95.731l55.975-95.731h25.758v147.925h-25.758zM1655.633 277.983h-52.195c-13.55 0-24.214-10.881-24.214-24.43v-99.064c0-13.55 10.664-24.43 24.214-24.43h52.195c13.55 0 24.43 10.88 24.43 24.43v99.064c0 13.55-10.894 24.431-24.43 24.431zM1653.41 160.261c0-3.334-2.669-5.772-6.003-5.772h-35.542c-3.333 0-6.003 2.439-6.003 5.772v87.519c0 3.333 2.669 5.773 6.003 5.773h35.542c3.333 0 6.003-2.439 6.003-5.773v-87.519zM1705.619 253.553h40.203v-123.495h26.653v123.495h40.203v24.43h-107.059zM1839.343 277.983h26.653v-147.925h-26.653v147.925zM1980.182 277.983h-52.195c-13.55 0-24.214-10.881-24.214-24.43v-99.064c0-13.55 10.664-24.43 24.214-24.43h52.195c13.55 0 24.43 10.88 24.43 24.43v99.064c0 13.55-10.88 24.431-24.43 24.431zM1977.96 160.261c0-3.334-2.669-5.772-6.003-5.772h-35.542c-3.333 0-6.003 2.439-6.003 5.772v87.519c0 3.333 2.669 5.773 6.003 5.773h35.542c3.333 0 6.003-2.439 6.003-5.773v-87.519zM2124.124 277.983v-96.178l-55.975 96.178h-25.758v-147.925h25.758v95.731l55.975-95.731h25.772v147.925zM219.171 382.725v-1.138c0.501 0.014 1.002 0.067 1.504 0.082-0.501 0.353-1.002 0.691-1.504 1.057zM55.541 312.264c3.117 9.404 6.91 18.577 11.422 27.452-2.71 4.986-5.312 9.918-7.724 14.769-28.076 56.679-27.019 87.126-16.68 96.707 3.794 3.523 9.62 5.312 17.29 5.312 24.512 0 66.693-18.93 117.492-55.718 8.631 3.875 17.655 6.951 26.978 9.322-57.37 43.848-109.484 69.891-144.47 69.891-13.781 0-24.972-3.889-33.252-11.572-22.425-20.772-18.415-63.78 11.599-124.375 5.095-10.298 10.962-20.948 17.344-31.788zM401.5 169.57c14.905-22.14 27.683-43.644 37.696-63.875 28.062-56.693 27.019-87.127 16.68-96.707-3.794-3.523-9.62-5.312-17.29-5.312-24.038 0-65.094 18.279-114.606 53.712-9.268-3.523-18.74-6.341-28.373-8.414 56.788-43.184 108.305-68.78 142.979-68.78 13.781 0 24.973 3.889 33.265 11.558 35.216 32.656 1.206 116.692-59.769 203.724-2.764-9.010-6.396-17.628-10.582-25.907zM169.768 68.135c-46.124-28.13-86.76-44.675-113.806-44.675-9.81 0-16.897 2.276-21.043 6.762-5.285 5.704-7.141 17.628-2.439 36.178 0.217 0 0.407-0.067 0.623-0.067 18.265 0 33.075 14.81 33.075 33.075 0 8.821-3.51 16.788-9.133 22.724 0.637 1.098 1.193 2.141 1.856 3.265 5.637 9.485 11.938 19.228 18.848 29.146-4.255 7.859-7.981 16.043-11.165 24.498-11.68-16.016-21.965-31.707-30.663-46.829-0.949 0.082-1.843 0.284-2.805 0.284-18.306-0.014-33.116-14.824-33.116-33.089 0-9.553 4.106-18.089 10.582-24.132-7.181-25.691-5.88-47.032 7.087-61.029 8.794-9.485 21.667-14.281 38.278-14.281 34.241 0 84.999 21.409 141.422 57.791-9.512 2.791-18.739 6.274-27.601 10.38zM267.545 61.427c37.872 2.521 75.189 16.626 106.3 42.696l20.894-19.308 17.209 17.14-56.761 55.27c21.924 23.997 35.419 55.826 35.419 90.812 0 74.403-60.528 134.945-134.945 134.945-34.755 0-66.395-13.32-90.338-35l-58.902 59.091-17.209-17.141 24.607-24.688c-58.455-69.051-58.55-172.193 2.127-241.393 33.888-38.644 80.433-59.742 128.088-62.601v-69.769h-62.344v-23.482h148.169v23.482h-62.344v69.945zM255.661 360.625c62.181 0 112.587-50.406 112.587-112.587s-50.406-112.587-112.587-112.587c-62.181 0-112.587 50.406-112.587 112.587s50.406 112.587 112.587 112.587zM134.213 139.854c-52.263 59.606-52.709 148.224-3.238 208.182l17.845-17.899c-17.534-22.777-28.089-51.192-28.089-82.099 0-74.403 60.528-134.945 134.945-134.945 30.677 0 58.902 10.406 81.584 27.709l19.336-19.39c-66.666-54.389-165.202-46.761-222.382 18.442zM230.566 252.916l16.341-31.125h18.807l16.341 31.125v-47.005h21.585v86.882h-21.585l-25.745-45.731-25.745 45.731h-21.585v-86.882h21.585zM488.125 391.044c6.911 25.298 5.474 46.301-7.344 60.122-8.794 9.485-21.666 14.281-38.293 14.281-34.675 0-86.314-22.005-143.589-59.227 8.997-3.103 17.683-6.829 25.908-11.355 47.709 29.579 89.877 47.086 117.682 47.086 9.81 0 16.897-2.276 21.057-6.762 5.352-5.772 7.182-17.926 2.263-36.883-17.479-0.881-31.409-15.216-31.409-32.913 0-8.008 2.954-15.244 7.683-20.962-0.84-1.477-1.599-2.886-2.507-4.404-9.471-15.962-20.894-32.642-33.834-49.715 2.615-10.244 4.255-20.827 4.851-31.721 20.42 25.392 38.143 50.568 51.815 74.24 1.666-0.257 3.32-0.515 5.054-0.515 18.265 0 33.075 14.81 33.075 33.076 0 10.42-4.905 19.593-12.412 25.65z" horiz-adv-x="2150" />
<glyph unicode="&#xe613;" d="M219.171 382.725v-1.138c0.501 0.014 1.002 0.067 1.504 0.082-0.501 0.353-1.002 0.691-1.504 1.057zM55.541 312.264c3.117 9.404 6.91 18.577 11.422 27.452-2.71 4.986-5.312 9.918-7.724 14.769-28.076 56.679-27.019 87.126-16.68 96.707 3.794 3.523 9.62 5.312 17.29 5.312 24.512 0 66.693-18.93 117.492-55.718 8.631 3.875 17.655 6.951 26.978 9.322-57.37 43.848-109.484 69.891-144.47 69.891-13.781 0-24.972-3.889-33.252-11.572-22.425-20.772-18.415-63.78 11.599-124.375 5.095-10.298 10.962-20.948 17.344-31.788zM401.5 169.57c14.905-22.14 27.683-43.644 37.696-63.875 28.062-56.693 27.019-87.127 16.68-96.707-3.794-3.523-9.62-5.312-17.29-5.312-24.038 0-65.094 18.279-114.606 53.712-9.268-3.523-18.74-6.341-28.373-8.414 56.788-43.184 108.305-68.78 142.979-68.78 13.781 0 24.973 3.889 33.265 11.558 35.216 32.656 1.206 116.692-59.769 203.724-2.764-9.010-6.396-17.628-10.582-25.907zM169.768 68.135c-46.124-28.13-86.76-44.675-113.806-44.675-9.81 0-16.897 2.276-21.043 6.762-5.285 5.704-7.141 17.628-2.439 36.178 0.217 0 0.407-0.067 0.623-0.067 18.265 0 33.075 14.81 33.075 33.075 0 8.821-3.51 16.788-9.133 22.724 0.637 1.098 1.193 2.141 1.856 3.265 5.637 9.485 11.938 19.228 18.848 29.146-4.255 7.859-7.981 16.043-11.165 24.498-11.68-16.016-21.965-31.707-30.663-46.829-0.949 0.082-1.843 0.284-2.805 0.284-18.306-0.014-33.116-14.824-33.116-33.089 0-9.553 4.106-18.089 10.582-24.132-7.181-25.691-5.88-47.032 7.087-61.029 8.794-9.485 21.667-14.281 38.278-14.281 34.241 0 84.999 21.409 141.422 57.791-9.512 2.791-18.739 6.274-27.601 10.38zM267.545 61.427c37.872 2.521 75.189 16.626 106.3 42.696l20.894-19.308 17.209 17.14-56.761 55.27c21.924 23.997 35.419 55.826 35.419 90.812 0 74.403-60.528 134.945-134.945 134.945-34.755 0-66.395-13.32-90.338-35l-58.902 59.091-17.209-17.141 24.607-24.688c-58.455-69.051-58.55-172.193 2.127-241.393 33.888-38.644 80.433-59.742 128.088-62.601v-69.769h-62.344v-23.482h148.169v23.482h-62.344v69.945zM255.661 360.625c62.181 0 112.587-50.406 112.587-112.587s-50.406-112.587-112.587-112.587c-62.181 0-112.587 50.406-112.587 112.587s50.406 112.587 112.587 112.587zM134.213 139.854c-52.263 59.606-52.709 148.224-3.238 208.182l17.845-17.899c-17.534-22.777-28.089-51.192-28.089-82.099 0-74.403 60.528-134.945 134.945-134.945 30.677 0 58.902 10.406 81.584 27.709l19.336-19.39c-66.666-54.389-165.202-46.761-222.382 18.442zM230.566 252.916l16.341-31.125h18.807l16.341 31.125v-47.005h21.585v86.882h-21.585l-25.745-45.731-25.745 45.731h-21.585v-86.882h21.585zM488.125 391.044c6.911 25.298 5.474 46.301-7.344 60.122-8.794 9.485-21.666 14.281-38.293 14.281-34.675 0-86.314-22.005-143.589-59.227 8.997-3.103 17.683-6.829 25.908-11.355 47.709 29.579 89.877 47.086 117.682 47.086 9.81 0 16.897-2.276 21.057-6.762 5.352-5.772 7.182-17.926 2.263-36.883-17.479-0.881-31.409-15.216-31.409-32.913 0-8.008 2.954-15.244 7.683-20.962-0.84-1.477-1.599-2.886-2.507-4.404-9.471-15.962-20.894-32.642-33.834-49.715 2.615-10.244 4.255-20.827 4.851-31.721 20.42 25.392 38.143 50.568 51.815 74.24 1.666-0.257 3.32-0.515 5.054-0.515 18.265 0 33.075 14.81 33.075 33.076 0 10.42-4.905 19.593-12.412 25.65z" horiz-adv-x="501" />
<glyph unicode="&#xe614;" d="M416.711 224.298c15.062 19.413 28.43 38.613 40.050 57.344 1.238-0.085 2.432-0.341 3.698-0.341 1.65 0 3.3 0.085 4.992 0.242 27.762 2.745 48.142 27.548 45.411 55.324-1.152 11.677-6.243 21.945-13.71 29.881 13.426 46.564 2.474 72.32-11.463 86.315-8.106 8.106-22.998 17.792-48.014 17.792-45.341 0-111.616-32.356-181.603-86.414-69.974 54.058-136.249 86.414-181.589 86.414-25.017 0-39.922-9.685-48.014-17.806-18.46-18.503-31.73-57.514 9.856-138.183 14.806-28.729 34.986-59.449 59.122-90.553-14.663-18.858-27.776-37.546-39.197-55.779-3.114 0.27-6.286 0.313-9.514-0.014-13.454-1.322-25.586-7.794-34.176-18.247-8.576-10.439-12.572-23.609-11.264-37.063 1.152-11.705 6.301-21.988 13.852-29.909-14.322-47.829-3.314-74.154 10.823-88.349 8.107-8.121 22.997-17.806 48.014-17.806 45.454 0 111.929 32.512 182.101 86.798 70.158-54.3 136.633-86.798 182.087-86.798 25.017 0 39.908 9.685 48.014 17.806 18.446 18.517 31.73 57.543-9.856 138.212-14.905 28.899-35.271 59.833-59.62 91.136zM437.675 423.552c4.85 0 11.293-0.668 14.493-3.883 3.641-3.655 6.158-15.602-0.029-38.044-25.97-4.38-44.615-28.046-42.026-54.627 0.726-7.367 3.115-14.137 6.57-20.181-9.088-14.678-19.413-29.739-30.905-45.014-13.981 15.986-28.814 31.9-44.487 47.517-15.772 15.715-31.702 30.435-47.602 44.26 61.881 46.151 115.001 69.974 143.986 69.974zM355.598 224.298c-14.947-17.465-30.99-34.916-48.185-52.053-17.322-17.266-34.517-32.995-51.342-47.303-16.825 14.308-34.019 30.038-51.342 47.303-17.195 17.138-33.238 34.603-48.185 52.053 14.805 17.266 30.678 34.531 47.687 51.485 17.494 17.436 34.858 33.308 51.84 47.73 16.981-14.421 34.346-30.293 51.84-47.73 17.010-16.967 32.882-34.219 47.687-51.485zM78.379 336.541c-27.293 52.95-23.978 77.511-18.389 83.115 3.2 3.2 9.642 3.882 14.493 3.882 28.985 0 82.105-23.822 143.971-69.988-15.9-13.824-31.829-28.53-47.602-44.26-15.673-15.616-30.506-31.531-44.487-47.517-19.413 25.799-35.783 51.115-47.986 74.766zM73.984 24.448c-4.85 0-11.293 0.668-14.492 3.882-3.755 3.755-6.243 16.37 0.654 40.135 12.004 2.048 22.826 8.050 30.635 17.55 8.576 10.454 12.573 23.623 11.25 37.049-0.697 7.097-2.873 13.71-6.13 19.613 8.989 14.407 19.143 29.17 30.436 44.132 14.137-16.199 29.141-32.313 45.014-48.128 15.63-15.574 31.403-30.151 47.161-43.861-62.123-46.393-115.456-70.372-144.526-70.372zM452.665 28.345c-3.2-3.214-9.642-3.882-14.493-3.882-29.070 0-82.404 23.95-144.512 70.386 15.744 13.71 31.531 28.288 47.147 43.861 15.872 15.815 30.877 31.943 45.014 48.128 19.627-26.012 36.139-51.527 48.455-75.378 27.293-52.95 23.964-77.525 18.389-83.115z" />
<glyph unicode="&#xe615;" d="M129.946 408.32c0-27.213-20.096-49.254-53.145-49.254-31.104 0-51.2 22.041-51.2 49.255 0 27.853 20.761 49.254 52.505 49.254s51.2-21.401 51.84-49.254zM28.211 3.225v316.928h98.509v-316.928h-98.509zM185.677 219.059c0 39.527-1.305 72.576-2.611 101.095h85.555l4.557-44.083h1.945c12.954 20.762 44.723 51.2 97.869 51.2 64.793 0 113.408-43.417 113.408-136.755v-187.315h-98.509v175.642c0 40.832-14.285 68.711-49.92 68.711-27.213 0-43.392-18.79-50.534-36.941-2.611-6.477-3.251-15.539-3.251-24.627v-182.784h-98.509v215.859z" />
<glyph unicode="&#xe616;" d="M287.935-32h-95.935v256h-64v88.225l64 0.029-0.104 51.976c0 71.976 19.517 115.77 104.299 115.77h70.588v-88.242h-44.115c-33.016 0-34.603-12.328-34.603-35.342l-0.131-44.162h79.345l-9.352-88.225-69.927-0.029-0.065-256z" />
<glyph unicode="&#xe617;" d="M512 382.791c-18.838-8.354-39.082-14.001-60.33-16.54 21.686 13 38.343 33.585 46.186 58.115-20.298-12.039-42.778-20.78-66.705-25.49-19.16 20.415-46.461 33.17-76.673 33.17-58.011 0-105.044-47.029-105.044-105.039 0-8.233 0.929-16.25 2.72-23.939-87.3 4.382-164.701 46.2-216.509 109.753-9.042-15.514-14.223-33.558-14.223-52.809 0-36.444 18.544-68.596 46.73-87.433-17.219 0.546-33.416 5.271-47.577 13.139-0.010-0.438-0.010-0.878-0.010-1.321 0-50.894 36.209-93.348 84.261-103-8.813-2.4-18.094-3.686-27.674-3.686-6.769 0-13.349 0.66-19.764 1.886 13.368-41.73 52.16-72.103 98.126-72.948-35.95-28.175-81.243-44.967-130.458-44.967-8.479 0-16.84 0.497-25.058 1.47 46.486-29.805 101.701-47.197 161.021-47.197 193.211 0 298.868 160.062 298.868 298.872 0 4.554-0.103 9.084-0.305 13.59 20.528 14.81 38.336 33.31 52.418 54.374z" />
<glyph unicode="&#xe618;" d="M530.745 313.053c-10.131 82.996-50.3 166.947-192.208 166.947-102.752 0-172.133-62.584-190.355-166.666-83.108-12.978-146.946-84.831-146.946-171.516 0-95.842 77.977-173.819 173.819-173.819h31.816v288.088c0 101.853 47.996 160.28 131.666 160.28 81.291 0 131.685-26.817 131.685-160.28v-288.088h31.816c95.842 0 173.819 77.977 173.819 173.819 0.019 86.048-62.902 157.49-145.111 171.235zM143.238 36.314c-45.281 13.689-78.37 55.786-78.37 105.486s33.071 91.797 78.37 105.486v-210.972zM533.872 36.314v210.972c45.28-13.689 78.37-55.786 78.37-105.486s-33.090-91.797-78.37-105.486z" horiz-adv-x="674" />
<glyph unicode="&#xe619;" d="M256 476.16c-135.731 0-245.76-110.029-245.76-245.76s110.029-245.76 245.76-245.76c135.731 0 245.735 110.029 245.735 245.76s-109.978 245.76-245.735 245.76zM321.945 124.365c-10.061-4.787-19.149-8.141-27.238-10.087-8.141-1.92-16.998-2.893-26.445-2.893-10.752 0-20.25 1.382-28.518 4.122-8.243 2.739-15.309 6.681-21.145 11.75s-9.881 10.496-12.135 16.231-3.379 14.029-3.379 24.909v83.482h-25.984v33.664c9.216 3.046 17.152 7.399 23.731 13.082 6.579 5.657 11.879 12.467 15.846 20.429 3.994 7.936 6.758 18.073 8.243 30.336h33.433v-60.186h55.782v-37.35h-55.783v-61.031c0-13.798 0.717-22.656 2.176-26.573s4.122-7.040 8.038-9.37c5.223-3.149 11.187-4.762 17.869-4.762 11.904 0 23.757 3.917 35.507 11.776v-37.529z" />
<glyph unicode="&#xe61a;" d="M89.195 273.983v-305.983h-89.195v512h89.195l136.853-313.655 136.815 313.655h89.195v-512h-89.195v305.983l-97.642-218.338h-78.423l-97.603 218.338zM582.79 52.584v342.87c0 46.883 36.887 84.546 83.809 84.546h180.677c46.884 0 84.545-37.662 84.545-84.546v-342.87c0-46.883-37.662-84.546-84.545-84.546h-180.677c-46.884-0.038-83.809 37.623-83.809 84.546zM839.566 375.461c0 11.546-9.221 19.993-20.769 19.993h-122.982c-11.547 0-20.769-8.447-20.769-19.993v-302.884c0-11.546 9.221-19.993 20.769-19.993h122.982c11.547 0 20.769 8.447 20.769 19.993v302.884zM1062.553 480h249.84c46.883 0 84.545-37.662 84.545-84.546v-342.87c0-46.883-37.662-84.546-84.545-84.546h-249.84v511.962zM1304.72 375.461c0 11.546-9.222 19.993-20.768 19.993h-129.143v-342.87h129.143c11.546 0 20.768 8.447 20.768 19.993v302.884zM1527.708 480h310.594v-84.546h-218.338v-126.857h199.12v-84.545h-199.12v-131.468h218.338v-84.546h-310.594v511.962zM2146.61 165.57h-96.867v-197.57h-92.256v512h268.283c46.883 0 84.546-37.662 84.546-84.546v-145.3c0-39.986-26.89-73.038-63.816-82.26l98.417-199.894h-101.478l-96.828 197.57zM2218.099 375.461c0 11.546-9.222 19.993-20.769 19.993h-147.586v-145.3h147.586c11.546 0 20.769 8.447 20.769 19.994v105.314zM2820.882-32h-89.195l-193.734 331.324v-331.324h-89.157v512h89.195l193.734-332.873v332.873h89.195v-512zM3473.649-32h-89.195l-193.734 331.324v-331.324h-89.195v512h89.195l193.734-332.873v332.873h89.195v-512zM3604.419 52.584v342.87c0 46.883 36.887 84.546 83.809 84.546h180.677c46.883 0 84.546-37.662 84.546-84.546v-342.87c0-46.883-37.662-84.546-84.546-84.546h-180.677c-46.923-0.038-83.809 37.623-83.809 84.546zM3861.155 375.461c0 11.546-9.222 19.993-20.769 19.993h-122.983c-11.546 0-20.769-8.447-20.769-19.993v-302.884c0-11.546 9.222-19.993 20.769-19.993h122.983c11.546 0 20.769 8.447 20.769 19.993v302.884zM4041.87 480h370.535v-84.546h-139.14v-427.416h-92.256v427.416h-139.14v84.546zM4596.996-32h-92.256v512h92.256v-512zM4727.689 52.584v342.87c0 46.883 36.887 84.546 83.81 84.546h180.676c46.883 0 84.546-37.662 84.546-84.546v-342.87c0-46.883-37.662-84.546-84.546-84.546h-180.676c-46.883-0.038-83.81 37.623-83.81 84.546zM4984.464 375.461c0 11.546-9.221 19.993-20.769 19.993h-122.983c-11.547 0-20.769-8.447-20.769-19.993v-302.884c0-11.546 9.221-19.993 20.769-19.993h122.983c11.547 0 20.769 8.447 20.769 19.993v302.884zM5579.537-32h-89.157l-193.734 331.324v-331.324h-89.157v512h89.157l193.734-332.873v332.873h89.157v-512z" horiz-adv-x="5580" />
<glyph unicode="&#xe61b;" d="M64 416h160v-384h-160zM288 416h160v-384h-160z" />
<glyph unicode="&#xe61c;" d="M399.36 20.582c-19.865-9.472-37.888-16.154-53.99-19.968-16.128-3.789-33.587-5.735-52.301-5.735-21.274 0-40.064 2.739-56.448 8.166-16.333 5.453-30.259 13.209-41.831 23.219-11.546 10.112-19.559 20.787-24.013 32.128-4.48 11.341-6.707 27.776-6.707 49.305v165.223h-51.43v66.663c18.279 6.016 33.971 14.592 46.976 25.83 13.056 11.213 23.501 24.704 31.411 40.448 7.885 15.744 13.286 35.737 16.281 60.057h66.176v-119.065h110.464v-73.933h-110.464v-120.807c0-27.289 1.433-44.825 4.327-52.608 2.816-7.731 8.141-13.926 15.897-18.56 10.342-6.247 22.093-9.37 35.353-9.37 23.577 0 47.002 7.757 70.298 23.245v-74.24z" />
</font>
</defs>
</svg>
